# xmcd
#
# Track frame offsets: 
#        150
#        24336
#        45640
#        59069
#        77553
#        89628
#        107344
#        157178
#        190122
#        220218
#        249587
#        263754
#        283756
#        300283
#        312691
#        322481
#
# Disc length: 4459 seconds
#
# Revision: 0
# Processed by: cddbd v1.5.2PL0 Copyright (c) Steve Scherf et al.
# Submitted via: ExactAudioCopy v0.95b3
#
DISCID=e8116910
DTITLE=Big Joe Turner - Boss Man's Blues
DYEAR=2006
DGENRE=Blues
TTITLE0=Flip, Flop and Fly
TTITLE1=Chains of Love
TTITLE2=Chicken and the Hawk
TTITLE3=Honey Hush
TTITLE4=S.K. Blues
TTITLE5=Roll 'Em Pete
TTITLE6=On My Way to Denver Blues
TTITLE7=Shoo-Shoo Boogie Boo
TTITLE8=Matchbox Blues
TTITLE9=Twenty Nine Ways
TTITLE10=Cherry Red
TTITLE11=Can't Read, Can't Write Blues
TTITLE12=I've Been Up on the Mountain
TTITLE13=I Love You Baby
TTITLE14=Night Time Is the Right Time
TTITLE15=Morning Glory
EXTD=
EXTT0=
EXTT1=
EXTT2=
EXTT3=
EXTT4=
EXTT5=
EXTT6=
EXTT7=
EXTT8=
EXTT9=
EXTT10=
EXTT11=
EXTT12=
EXTT13=
EXTT14=
EXTT15=
PLAYORDER=
